<svg width="18" height="18" viewBox="0 0 18 18" fill="none" xmlns="http://www.w3.org/2000/svg">
<g clip-path="url(#clip0)">
<path d="M17.625 11.25C17.0283 11.25 16.456 11.0129 16.034 10.591C15.6121 10.169 15.375 9.59674 15.375 9C15.375 8.40326 15.6121 7.83097 16.034 7.40901C16.456 6.98705 17.0283 6.75 17.625 6.75V4.125C17.625 3.92609 17.546 3.73532 17.4053 3.59467C17.2647 3.45402 17.0739 3.375 16.875 3.375H1.125C0.926088 3.375 0.735322 3.45402 0.59467 3.59467C0.454018 3.73532 0.375 3.92609 0.375 4.125V6.75C0.971737 6.75 1.54403 6.98705 1.96599 7.40901C2.38795 7.83097 2.625 8.40326 2.625 9C2.625 9.59674 2.38795 10.169 1.96599 10.591C1.54403 11.0129 0.971737 11.25 0.375 11.25V13.875C0.375 14.0739 0.454018 14.2647 0.59467 14.4053C0.735322 14.546 0.926088 14.625 1.125 14.625H16.875C17.0739 14.625 17.2647 14.546 17.4053 14.4053C17.546 14.2647 17.625 14.0739 17.625 13.875V11.25Z" stroke="#79B750" stroke-width="1.2" stroke-linecap="round" stroke-linejoin="round"/>
<path d="M6 12L12 6" stroke="#79B750" stroke-width="1.2" stroke-linecap="round" stroke-linejoin="round"/>
<path d="M6.75 7.875C7.37132 7.875 7.875 7.37132 7.875 6.75C7.875 6.12868 7.37132 5.625 6.75 5.625C6.12868 5.625 5.625 6.12868 5.625 6.75C5.625 7.37132 6.12868 7.875 6.75 7.875Z" stroke="#79B750" stroke-width="1.2" stroke-linecap="round" stroke-linejoin="round"/>
<path d="M11.25 12.375C11.8713 12.375 12.375 11.8713 12.375 11.25C12.375 10.6287 11.8713 10.125 11.25 10.125C10.6287 10.125 10.125 10.6287 10.125 11.25C10.125 11.8713 10.6287 12.375 11.25 12.375Z" stroke="#79B750" stroke-width="1.2" stroke-linecap="round" stroke-linejoin="round"/>
</g>
<defs>
<clipPath id="clip0">
<rect width="18" height="18" fill="white"/>
</clipPath>
</defs>
</svg>
