<svg width="18" height="19" viewBox="0 0 18 19" fill="none" xmlns="http://www.w3.org/2000/svg">
<g clip-path="url(#clip0)">
<path d="M9.75972 3.9707V5.45508C9.75972 5.701 9.96408 5.90039 10.2161 5.90039H11.7375C11.9895 5.90039 12.1939 5.701 12.1939 5.45508V3.9707C12.1939 3.72478 11.9895 3.52539 11.7375 3.52539H10.2161C9.96408 3.52539 9.75972 3.72478 9.75972 3.9707ZM5.34779 3.52539H6.86915C7.1212 3.52539 7.32556 3.72478 7.32556 3.9707V5.45508C7.32556 5.701 7.1212 5.90039 6.86915 5.90039H5.34779C5.09574 5.90039 4.89139 5.701 4.89139 5.45508V3.9707C4.89139 3.72478 5.09574 3.52539 5.34779 3.52539ZM10.2161 7.08789H11.7375C11.9895 7.08789 12.1939 7.28728 12.1939 7.5332V9.01758C12.1939 9.2635 11.9895 9.46289 11.7375 9.46289H10.2161C9.96408 9.46289 9.75972 9.2635 9.75972 9.01758V7.5332C9.75972 7.28728 9.96408 7.08789 10.2161 7.08789ZM5.34779 7.08789H6.86915C7.1212 7.08789 7.32556 7.28728 7.32556 7.5332V9.01758C7.32556 9.2635 7.1212 9.46289 6.86915 9.46289H5.34779C5.09574 9.46289 4.89139 9.2635 4.89139 9.01758V7.5332C4.89139 7.28728 5.09574 7.08789 5.34779 7.08789ZM10.2161 10.6504H11.7375C11.9895 10.6504 12.1939 10.8498 12.1939 11.0957V12.5801C12.1939 12.826 11.9895 13.0254 11.7375 13.0254H10.2161C9.96408 13.0254 9.75972 12.826 9.75972 12.5801V11.0957C9.75972 10.8498 9.96408 10.6504 10.2161 10.6504ZM5.34779 10.6504H6.86915C7.1212 10.6504 7.32556 10.8498 7.32556 11.0957V12.5801C7.32556 12.826 7.1212 13.0254 6.86915 13.0254H5.34779C5.09574 13.0254 4.89139 12.826 4.89139 12.5801V11.0957C4.89139 10.8498 5.09574 10.6504 5.34779 10.6504ZM0.0230541 18.2578V19H17.0622V18.2578C17.0622 18.0119 16.8579 17.8125 16.6058 17.8125H15.8451V0.890625C15.8451 0.39874 15.4365 0 14.9323 0H2.15295C1.64881 0 1.24014 0.39874 1.24014 0.890625V17.8125H0.47946C0.227409 17.8125 0.0230541 18.0119 0.0230541 18.2578ZM2.45722 17.8125V1.1875H14.6281V17.8125H9.75972V14.6582C9.75972 14.4123 9.55537 14.2129 9.30332 14.2129H7.78196C7.52991 14.2129 7.32556 14.4123 7.32556 14.6582V17.8125H2.45722Z" fill="#6C757D"/>
</g>
<defs>
<clipPath id="clip0">
<rect width="17.0392" height="19" fill="white" transform="matrix(-1 0 0 1 17.0622 0)"/>
</clipPath>
</defs>
</svg>
