<svg width="242" height="243" viewBox="0 0 242 243" fill="none" xmlns="http://www.w3.org/2000/svg">
<path fill-rule="evenodd" clip-rule="evenodd" d="M121.242 93.7982L121.784 80.1784L130.699 86.7995C127.302 88.7501 124.136 91.1071 121.247 93.7982H121.242ZM198.532 87.3126C199.597 87.3126 200.502 88.2806 200.502 89.4277V162.105C200.502 163.257 199.602 164.225 198.532 164.225H111.993C110.923 164.225 110.018 163.257 110.018 162.105V135.175C110.018 122.451 114.664 110.443 123.11 101.378C131.551 92.3026 142.717 87.3077 154.561 87.3077L198.532 87.3126ZM86.5876 92.4285L115.361 79.1185L114.485 101.402C114.485 101.402 109.936 107.858 107.467 114.223L86.5876 92.4285ZM40.6512 35.7763C43.5552 33.5983 45.4525 29.9925 45.4525 25.9027C45.4525 25.0121 45.3557 24.1506 45.1863 23.3181L55.9843 31.3331L40.6512 35.7763ZM39.0056 25.9027C39.0056 28.7195 36.8712 31.0137 34.2479 31.0137C31.6246 31.0137 29.4853 28.7195 29.4853 25.9027C29.4853 23.0809 31.6246 20.7916 34.2479 20.7916C36.8712 20.7916 39.0056 23.0809 39.0056 25.9027ZM39.509 43.2879L59.3772 37.5283L55.297 59.7633L39.509 43.2879ZM63.0314 67.8413L84.8404 57.8225L79.0324 84.5441L63.0314 67.8413ZM112.182 73.0539L85.4744 85.4008L91.4906 57.6869L112.182 73.0539ZM82.7882 51.2304L61.6568 60.9346L65.7563 38.5883L82.7882 51.2304ZM205.095 178.087V183.667H89.6223C88.9205 183.667 88.33 183.038 88.33 182.283V179.476C88.33 178.721 88.9205 178.087 89.6223 178.087H205.095ZM25.047 37.8575L29.9742 42.9879V128.864H27.3267C25.9328 128.864 24.7954 130.089 24.7954 131.584C24.7954 133.084 25.9328 134.304 27.3267 134.304H39.1411C40.535 134.304 41.6724 133.084 41.6724 131.584C41.6724 130.089 40.535 128.864 39.1411 128.864H36.421V49.73L105.197 121.522C105.197 121.522 103.566 129.087 103.566 135.18V162.11C103.566 167.09 107.356 171.161 111.988 171.161H89.6223C85.3631 171.161 81.8783 174.902 81.8783 179.476V182.288C81.8783 186.862 85.3631 190.603 89.6223 190.603H207.525C209.737 190.603 211.542 188.667 211.542 186.291V174.273C211.542 172.564 210.235 171.161 208.648 171.161H198.532C203.164 171.161 206.954 167.09 206.954 162.11V89.4277C206.954 84.4521 203.164 80.3769 198.532 80.3769H154.561C148.636 80.3769 142.94 81.4901 137.64 83.5132C136.406 83.9827 43.5988 13.7204 43.5988 13.7204C37.4132 8.32862 28.2947 9.29662 23.2078 15.9129C18.121 22.5243 18.9535 32.3399 25.047 37.8575V37.8575ZM172.822 209.3C175.765 209.3 178.165 211.88 178.165 215.045C178.165 218.21 175.765 220.79 172.822 220.79C169.879 220.79 167.474 218.215 167.474 215.045C167.474 211.875 169.874 209.3 172.822 209.3ZM172.822 227.721C179.332 227.721 184.612 222.044 184.612 215.045C184.612 208.046 179.337 202.369 172.822 202.369C166.307 202.369 161.027 208.046 161.027 215.05C161.027 222.053 166.302 227.721 172.822 227.721ZM145.815 209.3C148.762 209.3 151.158 211.88 151.158 215.045C151.158 218.21 148.762 220.79 145.815 220.79C142.862 220.79 140.467 218.215 140.467 215.045C140.467 211.875 142.867 209.3 145.815 209.3ZM145.815 227.721C152.329 227.721 157.61 222.044 157.61 215.045C157.61 208.046 152.329 202.369 145.815 202.369C139.3 202.369 134.02 208.046 134.02 215.05C134.02 222.053 139.295 227.721 145.815 227.721V227.721ZM118.808 209.3C121.755 209.3 124.151 211.88 124.151 215.045C124.151 218.21 121.755 220.79 118.808 220.79C115.86 220.79 113.464 218.215 113.464 215.045C113.464 211.875 115.86 209.3 118.808 209.3ZM118.808 227.721C125.322 227.721 130.603 222.044 130.603 215.045C130.603 208.046 125.322 202.369 118.808 202.369C112.293 202.369 107.012 208.046 107.012 215.05C107.012 222.053 112.293 227.721 118.808 227.721ZM130.762 131.371C130.762 117.122 141.556 105.526 154.817 105.526H179.709V145.964H130.762V131.371ZM129.349 152.895H181.118C183.891 152.895 186.156 150.46 186.156 147.483V104.006C186.156 101.029 183.891 98.5946 181.123 98.5946H154.817C138.042 98.5946 124.311 113.342 124.311 131.371V147.483C124.311 150.46 126.581 152.895 129.349 152.895V152.895ZM33.2024 188.706C21.1218 188.706 11.2966 178.145 11.2966 165.164C11.2966 152.183 21.1218 141.622 33.2024 141.622C45.2831 141.622 55.1083 152.183 55.1083 165.164C55.1083 178.145 45.2831 188.706 33.2024 188.706V188.706ZM33.2024 134.691C17.5354 134.691 4.84004 148.335 4.84004 165.164C4.84004 181.993 17.5354 195.637 33.1976 195.637C48.8598 195.637 61.5552 181.993 61.5552 165.164C61.5552 148.335 48.8598 134.691 33.1928 134.691H33.2024ZM195.41 215.045C195.41 206.367 201.983 199.305 210.056 199.305C218.129 199.305 224.702 206.372 224.702 215.045C224.702 223.718 218.134 230.785 210.056 230.785C201.978 230.785 195.41 223.723 195.41 215.045ZM95.803 198.028H196.136C191.737 202.185 188.963 208.269 188.963 215.05C188.963 221.168 191.219 226.714 194.883 230.79H97.0566C100.904 226.453 103.012 220.847 102.976 215.05C102.976 208.269 100.203 202.185 95.8078 198.028H95.803ZM67.9488 214.411C67.9488 210.563 69.1878 207.03 71.2594 204.232C73.931 201.203 77.7062 199.31 81.8832 199.31C89.9563 199.31 96.529 206.377 96.529 215.05C96.529 223.496 90.3096 230.402 82.5414 230.77C74.4344 230.402 67.9488 223.205 67.9488 214.411V214.411ZM210.632 191.097C222.558 191.097 232.32 201.59 232.32 214.411C232.32 227.232 222.558 237.716 210.627 237.716H83.19C82.9722 237.716 82.7544 237.706 82.5414 237.696C82.3188 237.706 82.1058 237.716 81.8832 237.716C70.2333 237.716 60.7856 227.566 60.7856 215.045C60.7856 208.956 63.0265 203.434 66.6614 199.363C70.6447 194.315 76.5834 191.092 83.19 191.092L210.632 191.097ZM19.9989 164.598H27.588C27.588 169.084 30.9809 172.719 35.1723 172.719V180.846C26.7991 180.846 20.0038 173.571 20.0038 164.598H19.9989Z" fill="#464646"/>
</svg>
