<svg width="17" height="17" viewBox="0 0 17 17" fill="none" xmlns="http://www.w3.org/2000/svg">
<path d="M1.59375 2.125H15.4062C16.2861 2.125 17 2.83887 17 3.71875V13.2812C17 14.1611 16.2861 14.875 15.4062 14.875H1.59375C0.713867 14.875 0 14.1611 0 13.2812V3.71875C0 2.83887 0.713867 2.125 1.59375 2.125ZM15.4062 3.1875H1.59375C1.30156 3.1875 1.0625 3.42656 1.0625 3.71875V5.09336C1.78965 5.70762 2.82891 6.5543 6.06289 9.1209C6.62402 9.56582 7.72969 10.6383 8.5 10.625C9.27031 10.6383 10.3793 9.56582 10.9371 9.1209C14.1711 6.5543 15.2104 5.70762 15.9375 5.09336V3.71875C15.9375 3.42656 15.6984 3.1875 15.4062 3.1875ZM1.59375 13.8125H15.4062C15.6984 13.8125 15.9375 13.5734 15.9375 13.2812V6.47461C15.1805 7.09551 13.9852 8.05508 11.5979 9.95098C10.9172 10.4955 9.71523 11.6941 8.5 11.6875C7.29141 11.6975 6.09941 10.5088 5.40215 9.95098C3.01484 8.05508 1.81953 7.09551 1.0625 6.47461V13.2812C1.0625 13.5734 1.30156 13.8125 1.59375 13.8125Z" fill="#6C757D"/>
</svg>
