<svg width="20" height="21" viewBox="0 0 20 21" fill="none" xmlns="http://www.w3.org/2000/svg">
<path d="M19.5173 16.6105C19.4721 16.4403 19.1257 16.1731 18.4781 15.8096C18.3038 15.6968 18.0548 15.5427 17.7324 15.3469C17.4097 15.1511 17.117 14.9709 16.8547 14.8066C16.592 14.6422 16.3461 14.4836 16.1167 14.3307C16.0805 14.3006 15.9666 14.2126 15.7751 14.0661C15.5833 13.9199 15.4207 13.8103 15.2861 13.7371C15.1519 13.6643 15.0176 13.6238 14.8834 13.6159C14.6917 13.6047 14.4428 13.7229 14.1362 13.9701C13.8296 14.2177 13.5452 14.4894 13.2832 14.7862C13.0211 15.0829 12.7463 15.3552 12.4591 15.6038C12.1714 15.8524 11.9412 15.9715 11.7689 15.9614C11.6824 15.9564 11.5763 15.9267 11.4503 15.8731C11.3245 15.8192 11.2291 15.7738 11.1639 15.7378C11.0994 15.7012 10.9893 15.6298 10.8333 15.5226C10.6771 15.4157 10.5901 15.357 10.5716 15.3466C9.30968 14.5649 8.24203 13.6924 7.36847 12.7291C6.49524 11.7653 5.74017 10.6273 5.10381 9.31449C5.09559 9.29537 5.04674 9.20402 4.95759 9.04061C4.8683 8.87705 4.80923 8.76201 4.78041 8.69497C4.75157 8.62818 4.71772 8.53072 4.67895 8.40278C4.64018 8.27485 4.62371 8.16921 4.62976 8.08568C4.64184 7.9189 4.79391 7.71356 5.08589 7.46994C5.37781 7.22647 5.69281 6.99809 6.03055 6.78528C6.36854 6.57248 6.68391 6.33484 6.97727 6.07281C7.27055 5.81063 7.42389 5.58698 7.43732 5.40159C7.44672 5.27188 7.42276 5.13768 7.36548 4.99937C7.30816 4.86076 7.21704 4.69039 7.09213 4.48746C6.96715 4.28463 6.8917 4.16394 6.86559 4.125C6.73876 3.88498 6.60833 3.62832 6.47394 3.35508C6.33955 3.0819 6.19331 2.7776 6.03463 2.44249C5.87609 2.10753 5.75057 1.84871 5.65778 1.6664C5.36953 0.997927 5.14113 0.630605 4.97258 0.56507C4.90747 0.533327 4.80777 0.513402 4.67373 0.505552C4.41481 0.490389 4.07368 0.516882 3.65006 0.585306C3.22631 0.653576 2.89111 0.73158 2.64407 0.819687C2.15075 0.986212 1.60185 1.52197 0.99725 2.42675C0.445337 3.26941 0.13849 4.11748 0.0767066 4.97031C0.0585868 5.22042 0.0577256 5.46475 0.0741194 5.70334C0.0905309 5.94168 0.13114 6.21177 0.196002 6.51356C0.260719 6.81524 0.314295 7.03966 0.35647 7.18624C0.398688 7.33291 0.478295 7.59589 0.595233 7.97527C0.711977 8.35454 0.781888 8.58663 0.804596 8.67175C1.07418 9.59999 1.41317 10.4344 1.82144 11.1753C2.4923 12.4062 3.43629 13.693 4.65282 15.0352C5.8694 16.3772 7.06456 17.4504 8.23834 18.2546C8.94405 18.7428 9.75504 19.1766 10.6707 19.5563C10.755 19.589 10.9837 19.6861 11.3568 19.8479C11.7301 20.0094 11.9893 20.12 12.134 20.1797C12.2788 20.2394 12.5018 20.3201 12.8022 20.4216C13.1032 20.5231 13.3743 20.5972 13.6163 20.6441C13.8585 20.6905 14.1089 20.7217 14.3676 20.7369C15.2492 20.7885 16.1579 20.6042 17.093 20.1842C18.0984 19.7218 18.7185 19.2646 18.9533 18.8125C19.076 18.5872 19.1992 18.2755 19.3243 17.8777C19.4496 17.4801 19.521 17.1562 19.5391 16.9058C19.5489 16.7757 19.5415 16.6776 19.5173 16.6105Z" fill="#64BA3D"/>
</svg>
