<svg width="17" height="17" viewBox="0 0 17 17" fill="none" xmlns="http://www.w3.org/2000/svg">
<g clip-path="url(#clip0)">
<path d="M0.803516 0.800409L4.15039 0.0267767C4.63848 -0.0861139 5.13984 0.16623 5.33906 0.627753L6.88301 4.23029C7.06562 4.65197 6.94277 5.15002 6.5875 5.44221L4.79785 6.90646C5.92676 9.20412 7.79609 11.0768 10.0971 12.2057L11.5613 10.416C11.8535 10.0608 12.3516 9.93791 12.7732 10.1205L16.3725 11.6645C16.834 11.8637 17.0863 12.3617 16.9734 12.8498L16.2031 16.1934C16.0936 16.6682 15.6752 17.0002 15.1904 17.0002C6.8166 17.0002 -1.90735e-06 10.2201 -1.90735e-06 1.80978C-1.90735e-06 1.32502 0.332031 0.906659 0.803516 0.800409ZM15.1705 15.9377L15.9342 12.6307L12.3682 11.1033L10.3926 13.5205C6.95273 11.9069 5.09004 10.0375 3.48301 6.61096L5.9002 4.63537L4.37285 1.06935L1.06582 1.83303C1.07246 9.61916 7.38437 15.9278 15.1705 15.9377Z" fill="#6C757D"/>
</g>
<defs>
<clipPath id="clip0">
<rect width="17" height="17" fill="white" transform="matrix(-1 0 0 1 17 0)"/>
</clipPath>
</defs>
</svg>
