<svg width="242" height="243" viewBox="0 0 242 243" fill="none" xmlns="http://www.w3.org/2000/svg">
<g clip-path="url(#clip0)">
<path fill-rule="evenodd" clip-rule="evenodd" d="M232.823 116.105L122.297 227.038C121.926 227.411 121.486 227.707 121 227.909C120.515 228.111 119.994 228.215 119.468 228.215C118.942 228.215 118.422 228.111 117.936 227.909C117.451 227.707 117.01 227.411 116.639 227.038L113.813 224.202L221.44 116.173C222.696 114.916 223.657 113.397 224.256 111.724C224.854 110.051 225.074 108.266 224.9 106.498L218.995 45.238L225.525 45.872C227.461 46.0656 228.976 47.6193 229.121 49.565L233.98 112.959C234.024 113.536 233.943 114.116 233.742 114.659C233.542 115.202 233.227 115.695 232.819 116.105H232.823ZM94.0121 227.038L9.16695 141.883C8.41711 141.129 7.99625 140.108 7.99625 139.044C7.99625 137.981 8.41711 136.96 9.16695 136.206L125.303 19.6586C125.668 19.2873 126.104 18.9919 126.584 18.7893C127.064 18.5866 127.579 18.4807 128.1 18.4776H128.502L205.855 26.0426C207.762 26.2265 209.272 27.7414 209.456 29.658L216.943 107.301C216.998 107.889 216.923 108.482 216.723 109.037C216.523 109.592 216.203 110.097 215.787 110.515L99.6749 227.043C99.3042 227.417 98.8631 227.713 98.3772 227.916C97.8912 228.118 97.37 228.222 96.8436 228.222C96.3171 228.222 95.7959 228.118 95.3099 227.916C94.824 227.713 94.3829 227.417 94.0121 227.043V227.038ZM237.097 48.9454C236.884 46.1267 235.686 43.4731 233.711 41.4505C231.736 39.428 229.112 38.1659 226.299 37.886L218.211 37.0778L217.413 28.8498C217.152 26.0692 215.931 23.4663 213.959 21.4879C211.988 19.5096 209.39 18.2793 206.61 18.0082L129.276 10.5158C127.513 10.3421 125.732 10.5634 124.064 11.1637C122.397 11.764 120.884 12.7281 119.635 13.9861L3.51867 130.524C1.26587 132.786 0.000663358 135.848 -0.000243653 139.041C-0.00115066 142.234 1.26232 145.297 3.51383 147.56L88.359 232.715C89.4712 233.833 90.7934 234.72 92.2494 235.325C93.7054 235.931 95.2667 236.242 96.8436 236.242C98.4204 236.242 99.9817 235.931 101.438 235.325C102.894 234.72 104.216 233.833 105.328 232.715L108.159 229.879L110.986 232.715C112.098 233.832 113.42 234.719 114.876 235.324C116.331 235.928 117.892 236.24 119.468 236.24C121.044 236.24 122.605 235.928 124.061 235.324C125.516 234.719 126.838 233.832 127.95 232.715L238.486 121.783C239.711 120.552 240.656 119.072 241.257 117.444C241.857 115.815 242.099 114.075 241.966 112.345L237.097 48.9454ZM66.0902 130.306L150.582 104.528L160.872 114.857L76.3752 140.634L66.0902 130.306ZM110.26 99.0878C106.967 99.0789 103.811 97.7636 101.486 95.4306C99.1616 93.0977 97.8574 89.9377 97.8599 86.6442C97.8587 83.3515 99.1634 80.1928 101.488 77.8609C103.813 75.529 106.967 74.2144 110.26 74.2054C113.552 74.2156 116.705 75.5308 119.029 77.8626C121.352 80.1943 122.657 83.3524 122.655 86.6442C122.655 89.9356 121.351 93.0929 119.027 95.4244C116.704 97.7559 113.551 99.0715 110.26 99.083V99.0878ZM110.26 65.1691C98.4601 65.1691 88.8624 74.8007 88.8624 86.6442C88.8624 98.4877 98.4601 108.119 110.255 108.119C122.05 108.119 131.653 98.4877 131.653 86.6442C131.653 74.8007 122.055 65.1691 110.26 65.1691V65.1691ZM104.404 158.155C104.402 154.863 105.706 151.705 108.03 149.374C110.354 147.042 113.507 145.727 116.799 145.716C120.091 145.727 123.244 147.042 125.568 149.374C127.891 151.705 129.195 154.863 129.194 158.155C129.195 161.447 127.892 164.604 125.57 166.937C123.247 169.269 120.095 170.586 116.804 170.599C113.511 170.59 110.356 169.275 108.032 166.943C105.707 164.611 104.402 161.453 104.404 158.16V158.155ZM95.4012 158.155C95.4012 169.999 105.004 179.63 116.799 179.63C128.599 179.63 138.192 169.999 138.192 158.155C138.192 146.317 128.599 136.68 116.799 136.68C105.004 136.68 95.4061 146.312 95.4061 158.155H95.4012ZM11.9935 139.042L17.6563 133.365L23.3046 139.047L17.6466 144.719L11.9935 139.042ZM79.8793 207.17L85.5325 201.493L91.1904 207.17L85.5325 212.847L79.8793 207.17ZM91.1856 218.549L96.8436 212.871L102.502 218.544L96.8436 224.226L91.1856 218.549ZM184.578 69.4767C183.467 70.5951 182.145 71.4828 180.689 72.0889C179.234 72.6949 177.673 73.0074 176.096 73.0083C174.519 73.0092 172.957 72.6985 171.501 72.0941C170.045 71.4897 168.722 70.6035 167.609 69.4864C165.356 67.2241 164.091 64.1617 164.09 60.969C164.089 57.7763 165.353 54.7132 167.604 52.4496C168.717 51.3319 170.039 50.4449 171.495 49.8397C172.951 49.2344 174.512 48.9229 176.089 48.9229C177.666 48.9229 179.227 49.2344 180.683 49.8397C182.139 50.4449 183.461 51.3319 184.573 52.4496C186.826 54.7103 188.091 57.7711 188.091 60.9622C188.092 64.1532 186.829 67.2148 184.578 69.4767V69.4767ZM161.946 46.7771C158.197 50.5486 156.093 55.6509 156.094 60.969C156.095 66.2871 158.201 71.3887 161.951 75.1589C163.805 77.0226 166.008 78.5017 168.435 79.5109C170.863 80.5202 173.465 81.0397 176.094 81.0397C178.722 81.0397 181.325 80.5202 183.752 79.5109C186.179 78.5017 188.383 77.0226 190.236 75.1589C193.988 71.3878 196.094 66.2849 196.094 60.9656C196.094 55.6463 193.988 50.5433 190.236 46.7723C188.392 44.8913 186.191 43.3971 183.762 42.3771C181.333 41.357 178.726 40.8316 176.091 40.8316C173.457 40.8316 170.849 41.357 168.42 42.3771C165.992 43.3971 163.791 44.8913 161.946 46.7723V46.7771ZM23.3094 150.397L28.9722 144.719L34.6253 150.397L28.9674 156.074L23.3094 150.397ZM34.6253 161.742L40.2785 156.064L45.9413 161.742L40.2785 167.419L34.6253 161.742ZM45.9219 173.106L51.5847 167.433L57.2378 173.111L51.575 178.788L45.9219 173.106ZM57.2378 184.465L62.8958 178.788L68.5489 184.465L62.8958 190.143L57.2378 184.465ZM68.5634 195.815L74.2165 190.138L79.8793 195.815L74.2165 201.493L68.5634 195.815Z" fill="#464646"/>
</g>
<defs>
<clipPath id="clip0">
<rect width="242" height="242" fill="white" transform="translate(0 0.777832)"/>
</clipPath>
</defs>
</svg>
