<svg width="32" height="38" viewBox="0 0 32 38" fill="none" xmlns="http://www.w3.org/2000/svg">
<path fill-rule="evenodd" clip-rule="evenodd" d="M30.5608 26.9272C30.5591 27.1961 30.4509 27.4534 30.2598 27.6426C30.0688 27.8319 29.8105 27.9377 29.5416 27.9368C29.2727 27.9377 29.0144 27.8319 28.8234 27.6426C28.6323 27.4534 28.5241 27.1961 28.5224 26.9272V20.1512C28.5241 19.8823 28.6323 19.625 28.8234 19.4358C29.0144 19.2465 29.2727 19.1408 29.5416 19.1416C29.8106 19.1408 30.069 19.2467 30.2601 19.4361C30.4512 19.6255 30.5593 19.883 30.5608 20.152V26.9272ZM16.0504 36.2376C9.988 36.2376 5.0568 31.3496 5.0568 25.3416V15.4376C5.0568 14.6288 5.1096 14.0112 5.2384 13.3896C5.3168 13.428 5.396 13.4608 5.4736 13.5056C8.1264 15.1584 10.724 15.9896 13.228 15.9896C14.0648 15.9896 14.892 15.896 15.7064 15.7096C18.6856 15.0296 20.8256 13.2544 22.0864 11.9096V14.076C22.088 14.1208 22.2432 18.38 27.0432 19.0672V25.3424C27.0432 26.0144 26.9776 26.6712 26.8592 27.3104C25.3704 28.3568 23.1952 29.0992 20.7696 29.4128C20.5511 29.2101 20.2644 29.0971 19.9664 29.096H17.0632C16.5088 29.096 16.0432 29.48 15.9136 29.9904C15.5802 29.9631 15.2558 29.8683 14.9601 29.7118C14.6645 29.5553 14.4037 29.3403 14.1936 29.08C14.0732 28.9327 13.8997 28.8386 13.7106 28.8179C13.5214 28.7973 13.3318 28.8518 13.1824 28.9696C13.1088 29.0278 13.0475 29.1 13.002 29.182C12.9565 29.264 12.9277 29.3542 12.9173 29.4474C12.9069 29.5407 12.915 29.635 12.9413 29.7251C12.9676 29.8151 13.0115 29.899 13.0704 29.972C13.4983 30.5023 14.0572 30.9117 14.6918 31.1599C15.3263 31.4081 16.0147 31.4864 16.6888 31.3872C16.8072 31.4264 16.932 31.4528 17.0632 31.4528H19.9664C20.4192 31.4528 20.8104 31.1952 21.0112 30.8232C22.9824 30.5656 24.7952 30.0456 26.2864 29.3056C25.4704 31.3531 24.0585 33.1084 22.2335 34.3443C20.4085 35.5802 18.2545 36.2398 16.0504 36.2376ZM1.4392 23.6976C1.4392 22.4368 2.3912 21.4016 3.6176 21.2352V25.3424C3.6176 25.6184 3.6304 25.8912 3.6488 26.1632C2.4072 26.0096 1.4392 24.9688 1.4392 23.6976ZM3.2784 16.7056V14.6848C3.2784 14.2136 3.312 13.7424 3.3648 13.2768C3.5008 13.2112 3.6536 13.1608 3.824 13.1296C3.68 13.8368 3.6176 14.5456 3.6176 15.4368V16.7048L3.2784 16.7056ZM9.6272 4.62241C14.6832 2.99761 20.5792 5.65121 22.0864 6.40161V9.65441C21.5784 10.3808 19.2456 13.4368 15.3824 14.32C12.5216 14.976 9.444 14.296 6.2192 12.2856C5.82042 12.0507 5.38909 11.876 4.9392 11.7672L4.9352 11.7656L4.9296 11.7648L4.888 11.7536C4.2168 11.6072 3.6424 11.6632 3.1624 11.8168C3.428 11.3512 3.848 10.8016 4.488 10.1968C5.28 9.84641 6.3776 9.60001 7.664 10.1656C10.5824 11.4472 13.048 9.65681 13.9464 8.52961C14.0048 8.45625 14.0482 8.37205 14.0739 8.28185C14.0996 8.19165 14.1071 8.09725 14.0961 8.00411C14.0851 7.91097 14.0557 7.82094 14.0097 7.73922C13.9637 7.6575 13.9019 7.58571 13.828 7.52801C13.6778 7.41077 13.4875 7.35739 13.2983 7.37939C13.109 7.4014 12.9361 7.49704 12.8168 7.64561C12.7984 7.66961 10.8816 10.0208 8.2472 8.86161C6.7672 8.21121 5.4568 8.35281 4.4648 8.67921C5.7816 6.66401 7.5112 5.30321 9.6272 4.62241ZM16.0504 2.02641C19.5584 2.02641 22.74 3.43681 25.0504 5.71441C24.3964 5.47186 23.7116 5.32214 23.016 5.26961C22.0832 4.77361 17.056 2.26561 11.8704 2.73201C13.2148 2.26592 14.6275 2.02745 16.0504 2.02641ZM23.5256 6.77521C26.9 7.37841 27.0392 10.2256 27.0432 10.3368V17.6224C23.6688 17.0184 23.5296 14.172 23.5256 14.0608V6.77521ZM28.8216 17.8344C28.7052 17.8685 28.5916 17.9113 28.4816 17.9624V11.7944C28.7024 12.7232 28.8224 13.6904 28.8224 14.6848L28.8216 17.8344ZM30.2616 17.8344V14.6848C30.2608 6.91841 23.8848 0.600006 16.0488 0.600006C14.0116 0.601017 11.9983 1.03844 10.1443 1.88283C8.29034 2.72722 6.63878 3.95899 5.3008 5.49521C4.0592 6.61121 3.0224 8.05041 2.2048 9.80961C2.1969 9.8261 2.1897 9.84291 2.1832 9.86001C2.052 10.2088 2.124 10.456 2.2248 10.616C1.052 12.304 1.2488 13.5104 1.2848 13.6752C1.3456 13.9552 1.5704 14.1688 1.8544 14.2224C1.8488 14.3776 1.8384 14.5312 1.8384 14.6848V16.7048H1.2288C0.8312 16.7048 0.5088 17.0248 0.5088 17.4184C0.5088 17.812 0.8312 18.1312 1.2288 18.1312H3.6168V19.7928C1.5944 19.964 0 21.648 0 23.6976C0 25.8184 1.7088 27.548 3.8336 27.6136C4.912 33.3256 9.9776 37.664 16.0496 37.664C21.696 37.664 26.4712 33.912 27.9816 28.7944C28.3383 29.0919 28.7722 29.2818 29.2328 29.342C29.6933 29.4023 30.1615 29.3303 30.5827 29.1346C31.0039 28.9389 31.3608 28.6274 31.6117 28.2366C31.8627 27.8458 31.9973 27.3917 32 26.9272V20.1512C32 19.0576 31.264 18.1416 30.2608 17.8344H30.2616ZM9.0832 23.064C8.3936 23.064 7.8344 23.6184 7.8344 24.3016C7.8344 24.9856 8.3936 25.54 9.0832 25.54C9.7728 25.54 10.3328 24.9856 10.3328 24.3016C10.3328 23.6184 9.7728 23.064 9.0832 23.064ZM22.5552 23.064C21.8656 23.064 21.3056 23.6184 21.3056 24.3016C21.3056 24.9856 21.8656 25.54 22.5544 25.54C23.2448 25.54 23.804 24.9856 23.804 24.3016C23.804 23.6184 23.244 23.064 22.5544 23.064H22.5552ZM9.0736 20.3104C8.0072 20.3104 7.012 20.8784 6.4776 21.7952C6.43034 21.8762 6.39963 21.9658 6.38725 22.0588C6.37486 22.1517 6.38105 22.2463 6.40546 22.3368C6.42987 22.4274 6.47201 22.5122 6.52943 22.5863C6.58686 22.6605 6.65843 22.7225 6.74 22.7688C6.90496 22.8643 7.10102 22.8905 7.28527 22.8418C7.46953 22.793 7.62698 22.6733 7.7232 22.5088C8.0016 22.0328 8.5192 21.7368 9.0736 21.7368C9.628 21.7368 10.1456 22.0328 10.4248 22.5096C10.6248 22.8512 11.0656 22.9656 11.408 22.7688C11.4895 22.7224 11.561 22.6602 11.6184 22.586C11.6758 22.5117 11.7178 22.4268 11.7421 22.3362C11.7665 22.2456 11.7726 22.151 11.7601 22.058C11.7477 21.965 11.7169 21.8754 11.6696 21.7944C11.4034 21.3426 11.0239 20.9681 10.5686 20.7078C10.1133 20.4476 9.59801 20.3106 9.0736 20.3104ZM20.2216 22.7688C20.3865 22.864 20.5824 22.8901 20.7664 22.8414C20.9505 22.7927 21.1078 22.6731 21.204 22.5088C21.3427 22.274 21.5402 22.0793 21.7771 21.9441C22.014 21.8089 22.282 21.7378 22.5548 21.7378C22.8276 21.7378 23.0956 21.8089 23.3325 21.9441C23.5694 22.0793 23.7669 22.274 23.9056 22.5088C23.953 22.5904 24.016 22.6619 24.0911 22.7191C24.1661 22.7763 24.2517 22.8182 24.3429 22.8423C24.4342 22.8665 24.5293 22.8724 24.6228 22.8598C24.7163 22.8472 24.8064 22.8163 24.888 22.7688C24.9696 22.7225 25.0411 22.6605 25.0986 22.5863C25.156 22.5122 25.1981 22.4274 25.2225 22.3368C25.2469 22.2463 25.2531 22.1517 25.2408 22.0588C25.2284 21.9658 25.1977 21.8762 25.1504 21.7952C24.8844 21.3431 24.505 20.9684 24.0497 20.708C23.5943 20.4476 23.0789 20.3106 22.5544 20.3106C22.0299 20.3106 21.5145 20.4476 21.0591 20.708C20.6038 20.9684 20.2244 21.3431 19.9584 21.7952C19.9112 21.8763 19.8805 21.9659 19.8682 22.0589C19.8559 22.1519 19.8621 22.2464 19.8866 22.337C19.9111 22.4276 19.9533 22.5124 20.0108 22.5865C20.0683 22.6606 20.14 22.7226 20.2216 22.7688Z" fill="#464646"/>
</svg>
