<svg width="17" height="19" viewBox="0 0 17 19" fill="none" xmlns="http://www.w3.org/2000/svg">
<path d="M5.1 10.6875C6.18906 10.6875 6.71272 11.2812 8.5 11.2812C10.2873 11.2812 10.8071 10.6875 11.9 10.6875C14.7156 10.6875 17 12.9215 17 15.675V17.2188C17 18.2021 16.1842 19 15.1786 19H1.82143C0.815847 19 0 18.2021 0 17.2188V15.675C0 12.9215 2.28437 10.6875 5.1 10.6875ZM1.21429 17.2188C1.21429 17.5453 1.4875 17.8125 1.82143 17.8125H15.1786C15.5125 17.8125 15.7857 17.5453 15.7857 17.2188V15.675C15.7857 13.5783 14.044 11.875 11.9 11.875C11.1562 11.875 10.4163 12.4688 8.5 12.4688C6.5875 12.4688 5.84375 11.875 5.1 11.875C2.95603 11.875 1.21429 13.5783 1.21429 15.675V17.2188ZM8.5 9.5C5.81719 9.5 3.64286 7.37363 3.64286 4.75C3.64286 2.12637 5.81719 0 8.5 0C11.1828 0 13.3571 2.12637 13.3571 4.75C13.3571 7.37363 11.1828 9.5 8.5 9.5ZM8.5 1.1875C6.49263 1.1875 4.85714 2.78691 4.85714 4.75C4.85714 6.71309 6.49263 8.3125 8.5 8.3125C10.5074 8.3125 12.1429 6.71309 12.1429 4.75C12.1429 2.78691 10.5074 1.1875 8.5 1.1875Z" fill="#6C757D"/>
</svg>
