<svg width="20" height="20" viewBox="0 0 20 20" fill="none" xmlns="http://www.w3.org/2000/svg">
<path d="M2.31915 17.5L17.9442 2.5" stroke="#6C757D" stroke-width="1.2" stroke-linecap="round" stroke-linejoin="round"/>
<path d="M7.46997 15.8758C8.28898 16.1302 9.14239 16.2564 9.99997 16.25C13.4166 16.3075 16.8816 13.9058 19.02 11.5525C19.2492 11.298 19.3761 10.9675 19.3761 10.625C19.3761 10.2824 19.2492 9.95202 19.02 9.69749C18.2453 8.84767 17.3871 8.07796 16.4583 7.39999" stroke="#6C757D" stroke-width="1.2" stroke-linecap="round" stroke-linejoin="round"/>
<path d="M12.0108 5.235C11.3533 5.07137 10.6775 4.9924 9.99998 5C6.64081 4.94417 3.16665 7.29333 0.982478 9.69583C0.753215 9.95036 0.626343 10.2808 0.626343 10.6233C0.626343 10.9659 0.753215 11.2963 0.982478 11.5508C1.64658 12.2778 2.37143 12.9469 3.14915 13.5508" stroke="#6C757D" stroke-width="1.2" stroke-linecap="round" stroke-linejoin="round"/>
<path d="M6.875 10.625C6.87489 10.2146 6.95565 9.80818 7.11265 9.42899C7.26966 9.04979 7.49984 8.70525 7.79005 8.41505C8.08025 8.12484 8.42479 7.89466 8.80399 7.73765C9.18318 7.58065 9.58959 7.49989 10 7.5" stroke="#6C757D" stroke-width="1.2" stroke-linecap="round" stroke-linejoin="round"/>
<path d="M13.125 10.6242C13.1251 11.0346 13.0444 11.4411 12.8874 11.8203C12.7304 12.1995 12.5002 12.5441 12.21 12.8344C11.9198 13.1247 11.5753 13.3549 11.1961 13.512C10.8169 13.6691 10.4105 13.75 10 13.75" stroke="#6C757D" stroke-width="1.2" stroke-linecap="round" stroke-linejoin="round"/>
</svg>
